<?xml version="1.0" encoding="utf-8"?>
<!-- Generator: Adobe Illustrator 18.1.1, SVG Export Plug-In . SVG Version: 6.00 Build 0)  -->
<svg version="1.1" id="Layer_1" xmlns="http://www.w3.org/2000/svg" xmlns:xlink="http://www.w3.org/1999/xlink" x="0px" y="0px"
	 viewBox="0 0 90 90" enable-background="new 0 0 90 90" xml:space="preserve">
<g>
	<linearGradient id="SVGID_1_" gradientUnits="userSpaceOnUse" x1="4.3271" y1="44.9131" x2="41" y2="44.9131">
		<stop  offset="0" style="stop-color:#746F99"/>
		<stop  offset="1" style="stop-color:#433F57"/>
	</linearGradient>
	<path fill="url(#SVGID_1_)" d="M41,81.1C23,78.7,9.3,63.3,9.3,44.9S23,11.1,41,8.8v-5C20,6.1,4.3,23.8,4.3,44.9S20,83.7,41,86.1
		V81.1z"/>
	<linearGradient id="SVGID_2_" gradientUnits="userSpaceOnUse" x1="81.968" y1="48.944" x2="42.8151" y2="44.2057">
		<stop  offset="0" style="stop-color:#FFFFFF"/>
		<stop  offset="1" style="stop-color:#C0BCD6"/>
	</linearGradient>
	<path fill="url(#SVGID_2_)" d="M69.9,11.9l0.1,0v6.5c7,6.8,10.9,16.2,10.9,26.4c0,17-11.9,31.4-27.9,35.4V4h-5v82.3l2.8-0.5
		c20.2-3.3,35-20.5,35-40.9C85.8,31.7,80,19.7,69.9,11.9z"/>
</g>
</svg>
